<svg width="48" height="48" viewBox="0 0 48 48" fill="none" xmlns="http://www.w3.org/2000/svg">
<g clip-path="url(#clip0)">
<rect width="48" height="48" fill="white"/>
<path d="M28.5 15.2936C28.5 19.2579 26.9996 25.9792 24.5223 31.7199C23.2877 34.5806 21.8515 37.0999 20.3146 38.8777C18.7505 40.6872 17.2875 41.5 16 41.5C14.7125 41.5 13.2495 40.6872 11.6854 38.8777C10.1485 37.0999 8.71227 34.5806 7.47774 31.7199C5.0004 25.9792 3.5 19.2579 3.5 15.2936C3.5 7.54807 9.21847 1.5 16 1.5C22.7815 1.5 28.5 7.54807 28.5 15.2936Z" fill="white" stroke="#152C5B" stroke-width="3"/>
<circle cx="16" cy="12" r="4.5" stroke="#D95224" stroke-width="3"/>
<path d="M30.5 41.6667C30.5 42.0646 30.3128 42.5795 29.69 43.193C29.0619 43.8118 28.076 44.4381 26.7368 44.9961C24.0649 46.1094 20.2697 46.8333 16 46.8333C11.7303 46.8333 7.93511 46.1094 5.26321 44.9961C3.92399 44.4381 2.93815 43.8118 2.31003 43.193C1.68721 42.5795 1.5 42.0646 1.5 41.6667C1.5 41.2687 1.68721 40.7538 2.31003 40.1403C2.93815 39.5215 3.92399 38.8952 5.26321 38.3372C7.93511 37.2239 11.7303 36.5 16 36.5C20.2697 36.5 24.0649 37.2239 26.7368 38.3372C28.076 38.8952 29.0619 39.5215 29.69 40.1403C30.3128 40.7538 30.5 41.2687 30.5 41.6667Z" stroke="#152C5B" stroke-width="3"/>
</g>
<defs>
<clipPath id="clip0">
<rect width="48" height="48" fill="white"/>
</clipPath>
</defs>
</svg>
