<svg width="48" height="48" viewBox="0 0 48 48" fill="none" xmlns="http://www.w3.org/2000/svg">
<path d="M23.0489 8.92705C23.3483 8.00574 24.6517 8.00574 24.9511 8.92705L27.8167 17.7467C27.9506 18.1587 28.3346 18.4377 28.7678 18.4377H38.0413C39.0101 18.4377 39.4128 19.6773 38.6291 20.2467L31.1267 25.6976C30.7762 25.9522 30.6295 26.4036 30.7634 26.8156L33.6291 35.6353C33.9284 36.5566 32.874 37.3227 32.0902 36.7533L24.5878 31.3024C24.2373 31.0478 23.7627 31.0478 23.4122 31.3024L15.9098 36.7533C15.1261 37.3227 14.0716 36.5566 14.3709 35.6353L17.2366 26.8156C17.3705 26.4036 17.2238 25.9522 16.8733 25.6976L9.37088 20.2467C8.58717 19.6773 8.98994 18.4377 9.95867 18.4377H19.2322C19.6654 18.4377 20.0494 18.1587 20.1833 17.7467L23.0489 8.92705Z" fill="#FFCE54"/>
</svg>
